<svg xmlns="http://www.w3.org/2000/svg" width="1600" height="820" viewBox="0 0 1600 820" role="img" aria-labelledby="title desc">
  <title id="title">DocTruth source cited extraction</title>
  <desc id="desc">A document, field-level citations, and an extracted Java record connected by source evidence lines.</desc>
  <defs>
    <linearGradient id="page" x1="124" y1="202" x2="506" y2="652" gradientUnits="userSpaceOnUse">
      <stop stop-color="#ffffff"/>
      <stop offset="1" stop-color="#eef8ff"/>
    </linearGradient>
    <linearGradient id="brand" x1="0" x2="1">
      <stop stop-color="#071832"/>
      <stop offset="1" stop-color="#0369d8"/>
    </linearGradient>
    <filter id="shadow" x="-20%" y="-20%" width="140%" height="140%">
      <feDropShadow dx="0" dy="18" stdDeviation="18" flood-color="#071832" flood-opacity="0.14"/>
    </filter>
    <style>
      .sans { font-family: Inter, ui-sans-serif, system-ui, -apple-system, BlinkMacSystemFont, "Segoe UI", sans-serif; }
      .mono { font-family: "SFMono-Regular", Consolas, "Liberation Mono", Menlo, monospace; }
      .navy { fill: #071832; }
      .muted { fill: #5d6b7e; }
      .blue { fill: #0369d8; }
      .line { stroke: #1495ed; stroke-width: 4; fill: none; stroke-linecap: round; stroke-linejoin: round; }
      .dot { fill: #1495ed; }
      .card { fill: #ffffff; stroke: #dbe5ef; stroke-width: 2; filter: url(#shadow); }
      .pill { fill: #f6fbff; stroke: #dbe5ef; stroke-width: 1.5; }
    </style>
  </defs>

  <rect width="1600" height="820" fill="#ffffff"/>

  <g transform="translate(260 28)">
    <g fill="none" stroke-linecap="round" stroke-linejoin="round">
      <path d="M0 0h104l44 45v128H0z" fill="url(#page)" stroke="#071832" stroke-width="9"/>
      <path d="M104 0v45h44" fill="#dff5ff" stroke="#14a8ee" stroke-width="9"/>
      <path d="M32 58h54M32 84h72M32 110h46" stroke="#071832" stroke-width="8"/>
      <path d="M148 56h24v86h-24" stroke="#14a8ee" stroke-width="8"/>
      <circle cx="188" cy="68" r="9" fill="#14a8ee" stroke="#14a8ee"/>
      <circle cx="188" cy="98" r="9" fill="#14a8ee" stroke="#14a8ee"/>
      <circle cx="188" cy="128" r="9" fill="#f5a400" stroke="#f5a400"/>
      <path d="M38 145l18 18 42-50" stroke="#0f9f6e" stroke-width="11"/>
    </g>
    <text x="255" y="102" class="sans navy" font-size="88" font-weight="850" letter-spacing="0">Doc<tspan class="blue">Truth</tspan></text>
    <text x="262" y="154" class="sans muted" font-size="25" font-weight="760" letter-spacing="9">SOURCE CITED EXTRACTION</text>
  </g>

  <g transform="translate(82 222)">
    <rect class="card" x="0" y="0" width="462" height="470" rx="18"/>
    <text x="54" y="52" class="sans navy" font-size="23" font-weight="800">MASTER SERVICES AGREEMENT</text>
    <text x="54" y="95" class="sans navy" font-size="17" font-weight="800">1. PARTIES</text>
    <text x="54" y="136" class="mono muted" font-size="16">14</text>
    <text x="96" y="136" class="sans navy" font-size="17">This Master Services Agreement is</text>
    <text x="54" y="162" class="mono muted" font-size="16">15</text>
    <text x="96" y="162" class="sans navy" font-size="17">entered into by and between:</text>
    <text x="54" y="198" class="mono muted" font-size="16">16</text>
    <rect x="94" y="175" width="238" height="34" rx="7" fill="#d8efff"/>
    <text x="108" y="198" class="mono navy" font-size="17" font-weight="700">Acme Corporation Pty Ltd</text>
    <text x="54" y="234" class="mono muted" font-size="16">20</text>
    <rect x="94" y="211" width="146" height="34" rx="7" fill="#d8efff"/>
    <text x="108" y="234" class="mono navy" font-size="17" font-weight="700">Globex Pty Ltd</text>
    <text x="54" y="314" class="sans navy" font-size="17" font-weight="800">4. FEES AND PAYMENT</text>
    <text x="54" y="360" class="mono muted" font-size="16">45</text>
    <text x="96" y="360" class="sans navy" font-size="17">The total fees for the Services under this</text>
    <text x="96" y="386" class="sans navy" font-size="17">Agreement shall be:</text>
    <text x="54" y="422" class="mono muted" font-size="16">47</text>
    <rect x="94" y="397" width="320" height="54" rx="7" fill="#dff8eb"/>
    <text x="108" y="420" class="mono navy" font-size="17" font-weight="700">AUD 250,000.00 (Two Hundred and</text>
    <text x="108" y="445" class="mono navy" font-size="17" font-weight="700">Fifty Thousand Australian Dollars)</text>
  </g>

  <g transform="translate(594 312)">
    <rect class="pill" x="0" y="0" width="214" height="78" rx="16" filter="url(#shadow)"/>
    <text x="26" y="29" class="sans blue" font-size="18" font-weight="800">CITATION</text>
    <text x="26" y="55" class="sans navy" font-size="18">Page 4  ·  Line 16</text>
    <text x="26" y="82" class="sans muted" font-size="14">Confidence 0.97</text>
  </g>
  <g transform="translate(594 436)">
    <rect class="pill" x="0" y="0" width="214" height="78" rx="16" filter="url(#shadow)"/>
    <text x="26" y="29" class="sans blue" font-size="18" font-weight="800">CITATION</text>
    <text x="26" y="55" class="sans navy" font-size="18">Page 4  ·  Line 20</text>
    <text x="26" y="82" class="sans muted" font-size="14">Confidence 0.96</text>
  </g>
  <g transform="translate(594 560)">
    <rect class="pill" x="0" y="0" width="214" height="78" rx="16" filter="url(#shadow)"/>
    <text x="26" y="29" class="sans blue" font-size="18" font-weight="800">CITATION</text>
    <text x="26" y="55" class="sans navy" font-size="18">Page 7  ·  Line 47</text>
    <text x="26" y="82" class="sans muted" font-size="14">Confidence 0.98</text>
  </g>

  <path class="line" d="M332 192h214c48 0 24 158 78 158"/>
  <circle class="dot" cx="594" cy="350" r="7"/>
  <path class="line" d="M240 228h306c48 0 24 246 78 246"/>
  <circle class="dot" cx="594" cy="474" r="7"/>
  <path class="line" d="M414 424h132c48 0 24 174 78 174"/>
  <circle class="dot" cx="594" cy="598" r="7"/>

  <g transform="translate(888 236)">
    <rect class="card" x="0" y="0" width="630" height="420" rx="18"/>
    <rect x="26" y="28" width="48" height="48" rx="12" fill="#edf6ff"/>
    <text x="90" y="62" class="sans navy" font-size="24" font-weight="800">Extracted Java Record</text>
    <text x="26" y="116" class="mono blue" font-size="20">public record Contract(</text>
    <text x="48" y="154" class="mono blue" font-size="20">Party partyA,</text>
    <text x="48" y="192" class="mono blue" font-size="20">Party partyB,</text>
    <text x="48" y="230" class="mono blue" font-size="20">BigDecimal totalValue,</text>
    <text x="48" y="268" class="mono blue" font-size="20">LocalDate effectiveDate</text>
    <text x="26" y="306" class="mono navy" font-size="20">) {}</text>
    <text x="26" y="358" class="mono blue" font-size="20">public record Party(</text>
    <text x="48" y="396" class="mono blue" font-size="20">String name, String address</text>
    <text x="26" y="434" class="mono navy" font-size="20">) {}</text>

    <g transform="translate(330 108)">
      <rect class="pill" x="0" y="0" width="276" height="58" rx="12"/>
      <text x="18" y="24" class="sans navy" font-size="14" font-weight="800">Acme Corp Pty Ltd</text>
      <text x="18" y="45" class="sans navy" font-size="12">Brisbane QLD 4000</text>
      <rect x="220" y="13" width="46" height="31" rx="8" fill="#e7fbf1" stroke="#94e7bf"/>
      <text x="232" y="35" class="sans" font-size="15" font-weight="800" fill="#0f9f6e">0.97</text>
    </g>
    <g transform="translate(330 182)">
      <rect class="pill" x="0" y="0" width="276" height="58" rx="12"/>
      <text x="18" y="24" class="sans navy" font-size="14" font-weight="800">Globex Pty Ltd</text>
      <text x="18" y="45" class="sans navy" font-size="12">Sydney NSW 2000</text>
      <rect x="220" y="13" width="46" height="31" rx="8" fill="#e7fbf1" stroke="#94e7bf"/>
      <text x="232" y="35" class="sans" font-size="15" font-weight="800" fill="#0f9f6e">0.96</text>
    </g>
    <g transform="translate(330 256)">
      <rect class="pill" x="0" y="0" width="276" height="58" rx="12"/>
      <text x="18" y="24" class="sans navy" font-size="14" font-weight="800">AUD 250,000</text>
      <text x="18" y="45" class="sans navy" font-size="12">field value with evidence</text>
      <rect x="220" y="13" width="46" height="31" rx="8" fill="#e7fbf1" stroke="#94e7bf"/>
      <text x="232" y="35" class="sans" font-size="15" font-weight="800" fill="#0f9f6e">0.98</text>
    </g>
    <g transform="translate(330 330)">
      <rect class="pill" x="0" y="0" width="276" height="58" rx="12"/>
      <text x="18" y="36" class="sans navy" font-size="15" font-weight="700">1 July 2026</text>
      <rect x="220" y="13" width="46" height="31" rx="8" fill="#fff6dc" stroke="#ffd27d"/>
      <text x="232" y="35" class="sans" font-size="15" font-weight="800" fill="#c77700">0.95</text>
    </g>
  </g>

  <path class="line" d="M808 350h80"/>
  <path class="line" d="M808 474h80"/>
  <path class="line" d="M808 598h80"/>
  <path class="line" d="M1200 390h18"/>
  <path class="line" d="M1200 428h18"/>
  <path class="line" d="M1200 466h18"/>

  <rect y="710" width="1600" height="110" fill="#071832"/>
  <circle cx="92" cy="765" r="34" fill="none" stroke="#0f9f6e" stroke-width="8"/>
  <path d="M74 763l15 15 31-38" fill="none" stroke="#0f9f6e" stroke-width="8" stroke-linecap="round" stroke-linejoin="round"/>
  <text x="146" y="779" class="sans" fill="#ffffff" font-size="40" font-weight="850">Every field <tspan fill="#14a8ee">cites</tspan> source page + line</text>
  <text x="952" y="760" class="sans" fill="#ffffff" font-size="16" font-weight="700">Source citations</text>
  <text x="1110" y="760" class="sans" fill="#ffffff" font-size="16" font-weight="700">Confidence</text>
  <text x="1242" y="760" class="sans" fill="#ffffff" font-size="16" font-weight="700">Provenance</text>
  <text x="1374" y="760" class="sans" fill="#ffffff" font-size="16" font-weight="700">Audit export</text>
</svg>
